# xmcd
#
# Track frame offsets: 
#        150
#        20087
#        36380
#        50990
#        68990
#        87817
#        111937
#        133292
#        153775
#        172075
#
# Disc length: 2492 seconds
#
# Revision: 0
# Processed by: cddbd v1.5.1PL0 Copyright (c) Steve Scherf et al.
# Submitted via: ExactAudioCopy v0.95a5
#
DISCID=9209ba0a
DTITLE=Various Artist - The Urban Network's Holiday Sampler
DYEAR=1998
DGENRE=Christmas/Holiday
TTITLE0=Brian McKnight - Let It Snow '98
TTITLE1=Brian McKnight (Featuring Claude McKnight and Tim Miner) - The F
TTITLE1=irst Noel
TTITLE2=Babyface - The Christmas Song
TTITLE3=Five Young Men - Give Love On Christmas Day
TTITLE4=Shirley Caesar - Little Drummer Boy
TTITLE5=Donald Lawrence - Love's Holiday
TTITLE6=Voices Of Soul - Someday At Christmas
TTITLE7=David Gough - We Three Kings
TTITLE8=Charles Woolfolk - Special Christmas
TTITLE9=Brian McKnight - Home For The Holidays
EXTD=
EXTT0=
EXTT1=
EXTT2=
EXTT3=
EXTT4=
EXTT5=
EXTT6=
EXTT7=
EXTT8=
EXTT9=
PLAYORDER=
